# xmcd
#
# Track frame offsets:
#	187
#	21150
#	40300
#	60775
#	83587
#	106962
#	127537
#	147112
#	167675
#	189162
#	211100
#	224800
#	243437
#	261712
#	281350
#
# Disc length: 4025 seconds
#
# Revision: 0
# Processed by: cddbd v1.5.2PL0 Copyright (c) Steve Scherf et al.
# Submitted via: EZCDAudioConverter 1.2.3.1
#
DISCID=ca0fb70f
DTITLE=Jacky Cheung - 愛得比你深(日版)-24_192
DYEAR=2012
DGENRE=Pop/Rock
TTITLE0=Jacky Cheung - 春風秋雨
TTITLE1=Jacky Cheung - 等你等到我心痛
TTITLE2=Jacky Cheung - 餓狼傳說
TTITLE3=Jacky Cheung - 吻別
TTITLE4=Jacky Cheung - 祇想一生跟你走
TTITLE5=Jacky Cheung - 明日世界終結時
TTITLE6=Jacky Cheung - 忘記他
TTITLE7=Jacky Cheung - 祝福
TTITLE8=Jacky Cheung - 這一次意外
TTITLE9=Jacky Cheung - 愛得比你深
TTITLE10=Jacky Cheung - 留住秋色
TTITLE11=Jacky Cheung - 情網
TTITLE12=Jacky Cheung - 一顆不變心
TTITLE13=Faye Wong/Jacky Cheung - 非常夏日
TTITLE14=Jacky Cheung - 相信她,關心她
EXTD=
EXTT0=
EXTT1=
EXTT2=
EXTT3=
EXTT4=
EXTT5=
EXTT6=
EXTT7=
EXTT8=
EXTT9=
EXTT10=
EXTT11=
EXTT12=
EXTT13=
EXTT14=
PLAYORDER=
